<?xml version="1.0" encoding="UTF-8" standalone="no"?>
<!DOCTYPE svg PUBLIC "-//W3C//DTD SVG 1.1//EN" "http://www.w3.org/Graphics/SVG/1.1/DTD/svg11.dtd">
<svg width="100%" height="100%" viewBox="0 0 4570 1392" version="1.1" xmlns="http://www.w3.org/2000/svg" xmlns:xlink="http://www.w3.org/1999/xlink" xml:space="preserve" xmlns:serif="http://www.serif.com/" style="fill-rule:evenodd;clip-rule:evenodd;stroke-linejoin:round;stroke-miterlimit:2;">
    <g transform="matrix(1,0,0,1,-2757.24,-227.879)">
        <g id="Artboard2" transform="matrix(2.28469,0,0,0.695913,-2821.28,227.879)">
            <rect x="2441.7" y="0" width="2000" height="2000" style="fill:none;"/>
            <g transform="matrix(1,0,0,1,29.1361,1.7053e-13)">
                <g transform="matrix(0.534531,0,0,1.75487,2484.77,-754.871)">
                    <g transform="matrix(1.04137,0,0,1.04137,-83.2121,46.9465)">
                        <path d="M1071.06,694.417L295.276,694.417C272.96,694.417 254.843,676.3 254.843,653.985C254.843,631.669 272.96,613.552 295.276,613.552L1092.68,613.552L1071.06,694.417Z" style="fill:rgb(231,25,55);"/>
                    </g>
                    <g transform="matrix(0.375119,0,0,0.386176,664.841,836.311)">
                        <path d="M721.939,762.959L479.559,762.959C417.642,762.959 367.373,714.129 367.373,653.985C367.373,593.84 417.642,545.01 479.559,545.01L781.942,545.01L721.939,762.959Z" style="fill:rgb(231,25,55);"/>
                    </g>
                    <g transform="matrix(0.742253,0,0,0.683068,252.631,461.686)">
                        <path d="M985.221,715.594L391.506,715.594C360.214,715.594 334.809,687.988 334.809,653.985C334.809,619.982 360.214,592.375 391.506,592.375L1015.55,592.375L985.221,715.594Z" style="fill:rgb(231,25,55);"/>
                    </g>
                    <g transform="matrix(0.174842,0,0,0.174842,474.057,919.185)">
                        <circle cx="1464.03" cy="970.472" r="240.694" style="fill:rgb(231,25,55);"/>
                    </g>
                    <g transform="matrix(0.174842,0,0,0.174842,359.501,919.185)">
                        <circle cx="1464.03" cy="970.472" r="240.694" style="fill:rgb(231,25,55);"/>
                    </g>
                    <g transform="matrix(0.174842,0,0,0.174842,172.225,738.723)">
                        <circle cx="1464.03" cy="970.472" r="240.694" style="fill:rgb(231,25,55);"/>
                    </g>
                    <g transform="matrix(1.0124,0.270739,-0.270739,1.0124,360.381,-243.39)">
                        <path d="M1558.83,554.195C1579.67,554.195 1596.56,571.085 1596.56,591.92L1596.56,1190.84C1596.56,1211.67 1579.67,1228.56 1558.83,1228.56L959.913,1228.56C939.079,1228.56 922.189,1211.67 922.189,1190.84L922.189,591.92C922.189,571.085 939.079,554.195 959.913,554.195L1558.83,554.195ZM1210.3,707.885C1109.03,734.968 1048.8,839.177 1075.88,940.451C1102.96,1041.72 1207.17,1101.96 1308.44,1074.87C1409.72,1047.79 1469.95,943.582 1442.87,842.309C1415.79,741.035 1311.58,680.802 1210.3,707.885Z" style="fill:rgb(231,25,55);"/>
                    </g>
                    <g transform="matrix(0.295082,0,0,0.295082,962.026,713.631)">
                        <circle cx="1464.03" cy="970.472" r="240.694" style="fill:rgb(231,25,55);"/>
                    </g>
                </g>
                <g transform="matrix(7.10595,0,0,23.0592,-23274.6,-20208.2)">
                    <g transform="matrix(50,0,0,50,3875.21,938.87)">
                    </g>
                    <text x="3774.91px" y="938.87px" style="font-family:'Inter-ExtraBold', 'Inter';font-weight:800;font-size:50px;fill:rgb(231,25,55);">T<tspan x="3803.83px 3821.76px 3848.94px 3861.03px " y="938.87px 938.87px 938.87px 938.87px ">rail</tspan></text>
                </g>
            </g>
        </g>
    </g>
</svg>
